<svg xmlns="http://www.w3.org/2000/svg" width="450" height="450" viewBox="0 0 450 450">
  <defs>
    <style>
      .cls-1 {
        fill-rule: evenodd;
      }
    </style>
  </defs>
  <path id="twitter" class="cls-1" d="M225,0C349.264,0,450,100.736,450,225S349.264,450,225,450,0,349.264,0,225,100.736,0,225,0ZM366.672,121.677c-0.94-.844-4.438,1.984-10.672,5.323-6.3,3.377-12.13,4.349-18,7-1.184.535-3.96,1.834-7,1s-4.307-3.261-7-6a35.086,35.086,0,0,0-5-4c-4.633-3.152-11.033-5.636-20-7a79.173,79.173,0,0,0-17-1c-17.992,1.735-35.773,13.023-45,30-6.707,12.34-8.012,22.3-7,29,0.858,5.682,3.18,11.468,1,13-1,.7-2.458.183-3,0-4.546-1.536-9.205-.727-15-2-4.777-1.049-10.3-2.076-14-3a196.973,196.973,0,0,1-20-6,141.536,141.536,0,0,1-36-20,49.05,49.05,0,0,1-13-9c-3.352-3.244-4.328-6.123-8-9-2.47-1.935-4.69-3.075-6-6a21.887,21.887,0,0,0-2-4,5.226,5.226,0,0,0-2-2c-3.324-.319-8.722,13.352-9,27-0.108,5.288,1.047,13.376,4,22,2.571,7.509,6.155,13.646,9,17a45.6,45.6,0,0,0,6,6c3.553,2.869,6.285,4.095,6,5-0.36,1.144-5.22.753-9,0a36.27,36.27,0,0,1-9-3c-3.741-1.837-5.809-3.733-7-3-1.856,1.142-.2,7,1,11,2.866,9.536,5.5,18.107,9,23,2.322,3.245,9.613,9.66,17,15,4.095,2.961,7.392,4.9,11,6,2.764,0.844,7.97,1.315,8,2,0.028,0.629-2.905,1.261-7,2-4.417.8-9.258,1.291-11,1-3.646-.609-6.052-2.01-7-1-1.418,1.512,1.87,6.895,4,10,4.153,6.056,20.526,27.667,41,28,2.656,0.043,5.53-.212,6,1,1.095,2.822-11.872,10.9-23,16-19.25,8.814-34.873,10.925-47,10-7.878-.6-13.6-2.183-14-1-0.634,1.865,12.766,8.214,22,12a187.566,187.566,0,0,0,67,14,163.689,163.689,0,0,0,84-22c25.58-14.985,45.1-37.847,56-55a172.558,172.558,0,0,0,9-16,159.031,159.031,0,0,0,8-19c6.77-19.834,8.207-45.922,8-50-0.036-.7-0.037-1.946,0-3,0.144-4.1,1.108-7.584,2-9,1.693-2.689,3.929-3.686,6-5,1.953-1.239,5.036-4.718,8-8,8.587-9.508,14.756-16.18,14-17-0.534-.579-4.284,2.018-7,4a145.455,145.455,0,0,1-14,4c-6.012,1.392-10.511,2.153-11,1-0.632-1.489,8.362-7.064,13-12C363.529,132.987,368.338,123.173,366.672,121.677ZM356,315"/>
</svg>
