<svg xmlns="http://www.w3.org/2000/svg" width="450" height="450" viewBox="0 0 450 450">
  <defs>
    <style>
      .cls-1 {
        fill-rule: evenodd;
      }
    </style>
  </defs>
  <path id="insta" class="cls-1" d="M225,0C349.264,0,450,100.736,450,225S349.264,450,225,450,0,349.264,0,225,100.736,0,225,0Zm0.769,449.685M297,136a16,16,0,1,1-16,16A16,16,0,0,1,297,136Zm-72,19c38.66,0,70,30.892,70,69s-31.34,69-70,69-70-30.892-70-69S186.34,155,225,155Zm-1,24a45,45,0,1,1-45,45A45,45,0,0,1,224,179ZM168,90H282a77,77,0,0,1,77,77V281a77,77,0,0,1-77,77H168a77,77,0,0,1-77-77V167A77,77,0,0,1,168,90Zm2,24H280a56,56,0,0,1,56,56V277a56,56,0,0,1-56,56H170a56,56,0,0,1-56-56V170A56,56,0,0,1,170,114Z"/>
</svg>
