<svg xmlns="http://www.w3.org/2000/svg" width="450" height="450" viewBox="0 0 450 450">
  <defs>
    <style>
      .cls-1 {
        fill-rule: evenodd;
      }
    </style>
  </defs>
  <path id="Rounded_Rectangle_1" data-name="Rounded Rectangle 1" class="cls-1" d="M225,0C349.264,0,450,100.736,450,225S349.264,450,225,450,0,349.264,0,225,100.736,0,225,0ZM195,183v88l78-44M173,120l120,1c8.313,0.226,16.54.557,25,1,16.439,0.862,31.247,2.345,42,13a44.606,44.606,0,0,1,8,11,45.642,45.642,0,0,1,5,18q1,7.5,2,15v91c-0.531,6.053-1.229,12.556-2,19-0.809,6.763-1.727,13.031-6,20a41.112,41.112,0,0,1-10,11c-11.6,8.942-24.834,9.563-33,10-15.656.839-31.953,1.724-46,2l-127-1c-7.425-.409-15.008-0.764-22-1a75.864,75.864,0,0,1-20-3c-12.576-3.881-19.964-10.4-23-15-2.662-4.032-3.582-8.119-5-14-1.348-5.589-3.1-11.078-4-16a126.181,126.181,0,0,1-2-26V196c0.285-8.971.948-17.889,2-27,0.808-7,2-14.943,7-24,5.149-9.324,11.265-14.492,16-17,6.231-3.3,13.337-3.885,16-4,11.464-.5,20.531-2.633,32-3C156.161,120.739,164.59,120.4,173,120ZM519,381"/>
</svg>
