<svg xmlns="http://www.w3.org/2000/svg" width="450" height="450" viewBox="0 0 450 450">
  <defs>
    <style>
      .cls-1 {
        fill-rule: evenodd;
      }
    </style>
  </defs>
  <path id="pinterist" class="cls-1" d="M225,0C349.264,0,450,100.736,450,225S349.264,450,225,450,0,349.264,0,225,100.736,0,225,0ZM158.9,440.354A277.752,277.752,0,0,0,177.722,405.6,295.955,295.955,0,0,0,193,363a318.61,318.61,0,0,0,8-37l1.138-.1A43.778,43.778,0,0,0,209,336c19.5,21.432,55.854,16.473,68,14,15.577-3.172,33.048-11.032,50.7-27.429,20.558-19.1,33.447-44.693,38.3-72.571a151.468,151.468,0,0,0,3-52c-2.246-19.166-7.633-34.872-13-45-4.61-8.7-12.4-19.4-23-30-15.3-15.3-29.758-24.366-43-30-9.88-4.2-31.864-9.486-55-10-27.095-.6-50.112,4.189-64.485,9.69C145.418,102.3,128.15,115.461,116,129a132.918,132.918,0,0,0-31,62c-4.557,22.169-3.225,39.753,0,53a112.919,112.919,0,0,0,27,50,96.819,96.819,0,0,0,13,10c1.647,1.057,3.291,2.043,5,3l4.675-.639L143,275a103.177,103.177,0,0,1-8-13,96.5,96.5,0,0,1-11-37,94.288,94.288,0,0,1,5-38,95.652,95.652,0,0,1,25-39c10.5-9.813,25.652-19.108,48-24a107.3,107.3,0,0,1,47,0c20.845,4.782,34.606,13.183,44,22,32.232,30.254,28.157,77.151,25,95-3.761,21.267-14.554,51.9-40,67-15.425,9.155-27.163,9.956-36,8-7.558-1.673-16.663-5.859-22-14-2.889-4.407-4.912-10.156-5-19-0.125-12.625,4.8-23.991,7-29,3.292-7.5,7.191-22.713,10-37,3.844-19.549,3.209-30.6-3-38-8.188-9.759-24.462-13.451-36-8a48.232,48.232,0,0,0-8,6,79.159,79.159,0,0,0-8,8c-8.243,9.869-11.734,23.913-12,38q1,10,2,20l5,14c-2.984,11.233-5.611,22.047-8,33-0.6,2.762-4.342,19.648-5,23-0.878,4.474-1.8,8.518-3,13-1.226,4.567-2.589,8.877-4,13-3.736,10.917-6.341,23.659-8,37a216.448,216.448,0,0,0-1,41c0.424,6.455,1.109,12.8,2.069,19.156l0.294-.222"/>
</svg>
