<svg xmlns="http://www.w3.org/2000/svg" width="450" height="450" viewBox="0 0 450 450">
  <defs>
    <style>
      .cls-1 {
        fill-rule: evenodd;
      }
    </style>
  </defs>
  <path class="cls-1" d="M225,0C349.264,0,450,100.736,450,225S349.264,450,225,450,0,349.264,0,225,100.736,0,225,0ZM325,92v56H292l-8.074,1.058-8.889,3.322-6.78,5.365-4.114,6.386-2.692,6.919s-1.152,6.338-1.727,9.507c0,0,.271,29.631.406,44.444-0.009-.029-0.017-0.058-0.025-0.087L322,225l-9,65H260V447l-6.8,1.218-8.508.791-9.98.446-8.94.23-8.507-.173-9.092-.5-8.482-.489-6.019-.806L188.717,447h0.025L189,290H132V225h57V163l1.059-4.217,1.974-11.842,2.566-8.29,2.96-6.71q1.679-3.552,3.355-7.105l3.853-6.193,5.181-6.171,5.79-5.235,6.425-5.264,6.857-4.215,7.771-3.682,9.244-2.46,9.27-2.488,9.523-1.036,17.93,0.014,15.009,0.633,11.047,1.251,14.171,2.071"/>
</svg>
